<mxfile host="app.diagrams.net" agent="Mozilla/5.0 (Windows NT 10.0; Win64; x64; rv:134.0) Gecko/20100101 Firefox/134.0" version="26.0.4">
  <diagram id="C5RBs43oDa-KdzZeNtuy" name="Page-1">
    <mxGraphModel dx="1100" dy="553" grid="1" gridSize="10" guides="1" tooltips="1" connect="1" arrows="1" fold="1" page="1" pageScale="1" pageWidth="827" pageHeight="1169" math="0" shadow="0">
      <root>
        <mxCell id="WIyWlLk6GJQsqaUBKTNV-0" />
        <mxCell id="WIyWlLk6GJQsqaUBKTNV-1" parent="WIyWlLk6GJQsqaUBKTNV-0" />
        <mxCell id="TETJtV4ih2mq-wsXNBXI-4" value="" style="edgeStyle=orthogonalEdgeStyle;rounded=0;orthogonalLoop=1;jettySize=auto;html=1;" edge="1" parent="WIyWlLk6GJQsqaUBKTNV-1" source="TETJtV4ih2mq-wsXNBXI-0" target="TETJtV4ih2mq-wsXNBXI-3">
          <mxGeometry relative="1" as="geometry" />
        </mxCell>
        <mxCell id="TETJtV4ih2mq-wsXNBXI-16" value="" style="edgeStyle=orthogonalEdgeStyle;rounded=0;orthogonalLoop=1;jettySize=auto;html=1;" edge="1" parent="WIyWlLk6GJQsqaUBKTNV-1" source="TETJtV4ih2mq-wsXNBXI-0" target="TETJtV4ih2mq-wsXNBXI-15">
          <mxGeometry relative="1" as="geometry" />
        </mxCell>
        <mxCell id="TETJtV4ih2mq-wsXNBXI-0" value="Start" style="ellipse;whiteSpace=wrap;html=1;" vertex="1" parent="WIyWlLk6GJQsqaUBKTNV-1">
          <mxGeometry x="390" y="40" width="104" height="50" as="geometry" />
        </mxCell>
        <mxCell id="TETJtV4ih2mq-wsXNBXI-18" value="" style="edgeStyle=orthogonalEdgeStyle;rounded=0;orthogonalLoop=1;jettySize=auto;html=1;" edge="1" parent="WIyWlLk6GJQsqaUBKTNV-1" source="TETJtV4ih2mq-wsXNBXI-3" target="TETJtV4ih2mq-wsXNBXI-5">
          <mxGeometry relative="1" as="geometry" />
        </mxCell>
        <mxCell id="TETJtV4ih2mq-wsXNBXI-3" value="&lt;div&gt;User Input&lt;/div&gt;&lt;div&gt;- Symptoms&lt;/div&gt;&lt;div&gt;- Lab results&lt;br&gt;&lt;/div&gt;" style="shape=parallelogram;perimeter=parallelogramPerimeter;whiteSpace=wrap;html=1;fixedSize=1;" vertex="1" parent="WIyWlLk6GJQsqaUBKTNV-1">
          <mxGeometry x="195" y="145" width="120" height="60" as="geometry" />
        </mxCell>
        <mxCell id="TETJtV4ih2mq-wsXNBXI-10" value="" style="edgeStyle=orthogonalEdgeStyle;rounded=0;orthogonalLoop=1;jettySize=auto;html=1;" edge="1" parent="WIyWlLk6GJQsqaUBKTNV-1" source="TETJtV4ih2mq-wsXNBXI-5" target="TETJtV4ih2mq-wsXNBXI-9">
          <mxGeometry relative="1" as="geometry" />
        </mxCell>
        <mxCell id="TETJtV4ih2mq-wsXNBXI-5" value="Data processing" style="whiteSpace=wrap;html=1;" vertex="1" parent="WIyWlLk6GJQsqaUBKTNV-1">
          <mxGeometry x="195" y="260" width="120" height="60" as="geometry" />
        </mxCell>
        <mxCell id="TETJtV4ih2mq-wsXNBXI-12" value="" style="edgeStyle=orthogonalEdgeStyle;rounded=0;orthogonalLoop=1;jettySize=auto;html=1;" edge="1" parent="WIyWlLk6GJQsqaUBKTNV-1" source="TETJtV4ih2mq-wsXNBXI-9" target="TETJtV4ih2mq-wsXNBXI-11">
          <mxGeometry relative="1" as="geometry" />
        </mxCell>
        <mxCell id="TETJtV4ih2mq-wsXNBXI-9" value="Disease Prediction" style="shape=parallelogram;perimeter=parallelogramPerimeter;whiteSpace=wrap;html=1;fixedSize=1;" vertex="1" parent="WIyWlLk6GJQsqaUBKTNV-1">
          <mxGeometry x="180" y="370" width="150" height="55" as="geometry" />
        </mxCell>
        <mxCell id="TETJtV4ih2mq-wsXNBXI-14" value="" style="edgeStyle=orthogonalEdgeStyle;rounded=0;orthogonalLoop=1;jettySize=auto;html=1;" edge="1" parent="WIyWlLk6GJQsqaUBKTNV-1" source="TETJtV4ih2mq-wsXNBXI-11" target="TETJtV4ih2mq-wsXNBXI-13">
          <mxGeometry relative="1" as="geometry" />
        </mxCell>
        <mxCell id="TETJtV4ih2mq-wsXNBXI-11" value="Hospital Recommendation and Guidance formation" style="whiteSpace=wrap;html=1;" vertex="1" parent="WIyWlLk6GJQsqaUBKTNV-1">
          <mxGeometry x="190" y="470" width="130" height="65" as="geometry" />
        </mxCell>
        <mxCell id="TETJtV4ih2mq-wsXNBXI-22" value="" style="edgeStyle=orthogonalEdgeStyle;rounded=0;orthogonalLoop=1;jettySize=auto;html=1;" edge="1" parent="WIyWlLk6GJQsqaUBKTNV-1" source="TETJtV4ih2mq-wsXNBXI-13" target="TETJtV4ih2mq-wsXNBXI-21">
          <mxGeometry relative="1" as="geometry" />
        </mxCell>
        <mxCell id="TETJtV4ih2mq-wsXNBXI-27" value="" style="edgeStyle=orthogonalEdgeStyle;rounded=0;orthogonalLoop=1;jettySize=auto;html=1;" edge="1" parent="WIyWlLk6GJQsqaUBKTNV-1" source="TETJtV4ih2mq-wsXNBXI-13" target="TETJtV4ih2mq-wsXNBXI-26">
          <mxGeometry relative="1" as="geometry" />
        </mxCell>
        <mxCell id="TETJtV4ih2mq-wsXNBXI-13" value="&lt;div&gt;Display Result&lt;/div&gt;&lt;div&gt;- Health risk summary&lt;/div&gt;&lt;div&gt;- Hospital suggestion&lt;/div&gt;&lt;div&gt;- Actionable advice&lt;br&gt;&lt;/div&gt;" style="shape=parallelogram;perimeter=parallelogramPerimeter;whiteSpace=wrap;html=1;fixedSize=1;" vertex="1" parent="WIyWlLk6GJQsqaUBKTNV-1">
          <mxGeometry x="170" y="584.5" width="170" height="95" as="geometry" />
        </mxCell>
        <mxCell id="TETJtV4ih2mq-wsXNBXI-20" value="" style="edgeStyle=orthogonalEdgeStyle;rounded=0;orthogonalLoop=1;jettySize=auto;html=1;" edge="1" parent="WIyWlLk6GJQsqaUBKTNV-1" source="TETJtV4ih2mq-wsXNBXI-15" target="TETJtV4ih2mq-wsXNBXI-19">
          <mxGeometry relative="1" as="geometry" />
        </mxCell>
        <mxCell id="TETJtV4ih2mq-wsXNBXI-15" value="&lt;div&gt;User Input&lt;/div&gt;&lt;div&gt;- Profile Information &lt;br&gt;&lt;/div&gt;" style="shape=parallelogram;perimeter=parallelogramPerimeter;whiteSpace=wrap;html=1;fixedSize=1;" vertex="1" parent="WIyWlLk6GJQsqaUBKTNV-1">
          <mxGeometry x="570" y="145" width="120" height="60" as="geometry" />
        </mxCell>
        <mxCell id="TETJtV4ih2mq-wsXNBXI-28" style="edgeStyle=orthogonalEdgeStyle;rounded=0;orthogonalLoop=1;jettySize=auto;html=1;exitX=0.5;exitY=1;exitDx=0;exitDy=0;entryX=1;entryY=0.5;entryDx=0;entryDy=0;" edge="1" parent="WIyWlLk6GJQsqaUBKTNV-1" source="TETJtV4ih2mq-wsXNBXI-19" target="TETJtV4ih2mq-wsXNBXI-26">
          <mxGeometry relative="1" as="geometry" />
        </mxCell>
        <mxCell id="TETJtV4ih2mq-wsXNBXI-19" value="Profile Creation" style="whiteSpace=wrap;html=1;" vertex="1" parent="WIyWlLk6GJQsqaUBKTNV-1">
          <mxGeometry x="570" y="260" width="120" height="60" as="geometry" />
        </mxCell>
        <mxCell id="TETJtV4ih2mq-wsXNBXI-24" value="" style="edgeStyle=orthogonalEdgeStyle;rounded=0;orthogonalLoop=1;jettySize=auto;html=1;" edge="1" parent="WIyWlLk6GJQsqaUBKTNV-1" source="TETJtV4ih2mq-wsXNBXI-21" target="TETJtV4ih2mq-wsXNBXI-23">
          <mxGeometry relative="1" as="geometry" />
        </mxCell>
        <mxCell id="TETJtV4ih2mq-wsXNBXI-29" style="edgeStyle=orthogonalEdgeStyle;rounded=0;orthogonalLoop=1;jettySize=auto;html=1;exitX=0.5;exitY=1;exitDx=0;exitDy=0;entryX=1;entryY=0;entryDx=0;entryDy=0;" edge="1" parent="WIyWlLk6GJQsqaUBKTNV-1" source="TETJtV4ih2mq-wsXNBXI-21" target="TETJtV4ih2mq-wsXNBXI-26">
          <mxGeometry relative="1" as="geometry" />
        </mxCell>
        <mxCell id="TETJtV4ih2mq-wsXNBXI-21" value="User have profile ? " style="rhombus;whiteSpace=wrap;html=1;" vertex="1" parent="WIyWlLk6GJQsqaUBKTNV-1">
          <mxGeometry x="415" y="588" width="90" height="88" as="geometry" />
        </mxCell>
        <mxCell id="TETJtV4ih2mq-wsXNBXI-25" style="edgeStyle=orthogonalEdgeStyle;rounded=0;orthogonalLoop=1;jettySize=auto;html=1;exitX=0.5;exitY=0;exitDx=0;exitDy=0;entryX=1;entryY=0.5;entryDx=0;entryDy=0;" edge="1" parent="WIyWlLk6GJQsqaUBKTNV-1" source="TETJtV4ih2mq-wsXNBXI-23" target="TETJtV4ih2mq-wsXNBXI-5">
          <mxGeometry relative="1" as="geometry" />
        </mxCell>
        <mxCell id="TETJtV4ih2mq-wsXNBXI-23" value="Feed data to user history" style="whiteSpace=wrap;html=1;" vertex="1" parent="WIyWlLk6GJQsqaUBKTNV-1">
          <mxGeometry x="400" y="410" width="120" height="60" as="geometry" />
        </mxCell>
        <mxCell id="TETJtV4ih2mq-wsXNBXI-26" value="End" style="ellipse;whiteSpace=wrap;html=1;" vertex="1" parent="WIyWlLk6GJQsqaUBKTNV-1">
          <mxGeometry x="203.13" y="730" width="103.75" height="50" as="geometry" />
        </mxCell>
        <mxCell id="TETJtV4ih2mq-wsXNBXI-30" value="Yes" style="text;strokeColor=none;align=center;fillColor=none;html=1;verticalAlign=middle;whiteSpace=wrap;rounded=0;" vertex="1" parent="WIyWlLk6GJQsqaUBKTNV-1">
          <mxGeometry x="410" y="570" width="60" height="30" as="geometry" />
        </mxCell>
        <mxCell id="TETJtV4ih2mq-wsXNBXI-31" value="No" style="text;strokeColor=none;align=center;fillColor=none;html=1;verticalAlign=middle;whiteSpace=wrap;rounded=0;" vertex="1" parent="WIyWlLk6GJQsqaUBKTNV-1">
          <mxGeometry x="460" y="670" width="60" height="30" as="geometry" />
        </mxCell>
      </root>
    </mxGraphModel>
  </diagram>
</mxfile>
